<svg width="320" height="243" viewBox="0 0 320 243" fill="none" xmlns="http://www.w3.org/2000/svg">
<path fill-rule="evenodd" clip-rule="evenodd" d="M27.644 0.276909C32.2852 0.505078 35.4784 1.32847 39.0485 3.23318C41.7757 4.69148 45.6235 7.55847 47.6069 9.61199C50.2151 12.3103 60.2312 31.5261 117.155 146.265L106.99 166.106C101.407 177.018 94.7622 189.637 92.2334 194.151C89.7046 198.665 87.1956 202.365 86.6501 202.385C86.1047 202.395 85.1527 201.829 84.5378 201.115C83.913 200.411 65.7848 164.568 44.2451 121.464C22.7053 78.3602 3.85313 39.9683 2.35566 36.149C0.243343 30.7523 -0.262424 28.0937 0.114422 24.2445C0.382181 21.4569 1.83998 16.9431 3.45645 13.9472C5.03325 11.0108 7.87943 7.36006 9.79341 5.83232C11.7074 4.30458 15.0494 2.35027 17.2312 1.50704C19.7997 0.505078 23.4789 0.0685815 27.644 0.276909ZM242.595 0.0189794C293.896 -0.0603837 296.633 0.0288994 301.601 1.90385C304.467 2.98517 308.374 5.14782 310.278 6.72516C312.182 8.29258 315.078 11.983 316.705 14.9293C319.075 19.2248 319.66 21.447 319.64 26.2286C319.62 29.5023 318.876 34.1848 317.984 36.645C316.962 39.4525 314.553 42.7659 311.498 45.5734C308.781 48.0733 304.497 50.7816 301.77 51.724C297.505 53.1922 290.613 53.4501 246.81 53.8073C207.142 54.1247 195.955 54.5017 193.02 55.5929C190.977 56.3568 188.081 58.1226 186.574 59.5214C185.066 60.9202 182.974 63.8269 181.923 65.9697C180.862 68.1422 180.038 71.8624 180.058 74.3425C180.088 76.8027 181.01 80.5923 182.111 82.7748C183.222 84.9573 184.947 87.4671 185.959 88.36C186.97 89.2528 189.37 90.7607 191.274 91.7131C193.188 92.6654 199.377 93.9451 205.049 94.5602C210.712 95.1753 215.531 96.1177 215.75 96.6633C215.978 97.2089 211.594 106.584 206.021 117.496C200.438 128.409 194.845 139.013 193.575 141.057C191.572 144.301 190.798 144.777 187.556 144.747C185.513 144.728 180.048 143.269 175.407 141.503C170.776 139.748 163.854 136.246 160.036 133.726C156.218 131.206 150.278 126.077 146.836 122.327C142.463 117.575 139.111 112.516 135.719 105.592C132.506 99.0343 130.295 92.8142 129.194 87.239C128.004 81.1875 127.697 76.148 128.093 69.3823C128.463 63.0994 129.525 57.3125 131.277 52.0216C132.715 47.6566 135.204 41.6251 136.79 38.6291C138.377 35.6331 142.046 30.2662 144.942 26.7246C147.838 23.1831 152.866 18.1138 156.109 15.465C159.362 12.8163 165.371 9.05645 169.457 7.11205C173.553 5.16766 179.572 2.78677 182.845 1.83441C188.18 0.266989 194.359 0.0785016 242.595 0.0189794ZM230.972 95.1753L242.615 95.1653C250.975 95.1653 256.34 95.701 261.685 97.0998C265.781 98.1613 271.8 100.225 275.073 101.683C278.346 103.141 283.701 106.157 286.973 108.379C290.246 110.611 295.095 114.47 297.763 116.951C300.421 119.431 304.507 124.143 306.857 127.417C309.197 130.69 312.539 136.94 314.285 141.305C316.03 145.67 318.123 152.366 318.926 156.186C319.938 160.987 320.225 166.046 319.828 172.554C319.521 177.743 318.361 185.213 317.25 189.171C316.139 193.129 314.285 198.258 313.115 200.579C311.944 202.901 309.326 207.256 307.283 210.252C305.25 213.248 301.185 218.188 298.249 221.234C295.324 224.269 289.8 228.604 285.982 230.876C282.164 233.138 276.362 236.045 273.09 237.334C269.817 238.624 263.797 240.429 259.702 241.352C253.285 242.791 245.679 243.019 204.414 242.999C157.398 242.989 156.555 242.959 156.069 241.005C155.762 239.785 158.092 233.971 162.138 225.876C165.748 218.644 171.55 207.484 181.357 189.419L213.836 189.429C232.083 189.439 248.704 188.992 251.768 188.417C255.041 187.802 258.561 186.304 260.574 184.687C262.419 183.199 264.799 180.868 265.86 179.499C266.991 178.05 267.963 174.905 268.21 171.929C268.448 169.122 268.131 165.104 267.526 163.001C266.911 160.888 265.007 157.674 263.302 155.848C261.596 154.033 258.522 151.682 256.479 150.64C253.226 148.983 250.41 148.735 234.165 148.656C223.941 148.606 213.35 148.279 210.622 147.912C206.983 147.426 205.605 146.801 205.416 145.521C205.277 144.569 209.621 135.194 215.075 124.688C220.53 114.183 226.341 103.25 227.987 100.383L230.972 95.1753ZM138.774 132.873C139.29 132.873 142.493 135.055 145.894 137.724C149.306 140.392 155.216 144.281 159.034 146.374C162.852 148.468 169.774 151.543 174.406 153.2C181.328 155.68 182.885 156.612 183.083 158.438C183.232 159.747 175.764 175.074 164.737 196.075C150.892 222.454 145.131 232.473 142.175 235.32C139.994 237.424 135.868 240.003 133.002 241.064C130.146 242.126 126.13 242.989 124.077 242.979C122.034 242.979 118.573 242.483 116.391 241.878C114.209 241.273 110.501 239.378 108.14 237.662C105.78 235.955 102.438 232.334 100.703 229.616C97.8266 225.112 97.5588 223.991 97.5787 216.72C97.5985 209.002 97.777 208.426 103.4 197.355C106.593 191.085 114.775 175.461 121.588 162.634C128.401 149.807 134.847 137.873 135.908 136.097C136.979 134.321 138.268 132.873 138.774 132.873Z" fill="white"/>
</svg>
