<svg width="400" height="147" viewBox="0 0 400 147" fill="none" xmlns="http://www.w3.org/2000/svg">
<path fill-rule="evenodd" clip-rule="evenodd" d="M220.914 51.3784C253.257 51.3784 266.971 51.8351 270.171 52.8626C272.686 53.6618 275.657 55.717 277.029 57.6579C278.514 59.8272 279.429 62.7958 279.429 65.6501C279.429 68.162 277.143 76.3825 274.4 83.918C271.657 91.4535 267.657 99.9024 265.714 102.757C263.657 105.611 260 109.15 257.6 110.749C255.086 112.347 251.657 114.402 249.714 115.316C246.971 116.686 238.514 117.028 207.2 117.257C181.486 117.485 168.229 117.942 168.571 118.741C168.914 119.426 171.2 120.91 173.714 122.166C177.943 124.336 178.171 124.678 177.257 127.532C177.079 128.007 176.831 128.674 176.486 129.605C175.503 132.254 173.729 137.037 170.514 145.572L141.714 146.143L143.886 140.092C144.477 138.439 146.84 131.962 150.122 122.968C153.188 114.567 157.055 103.969 161.029 93.0519C169.257 70.4454 176 51.835 176 51.6067C176 51.4925 196.229 51.3784 220.914 51.3784ZM186.514 76.1541C184.457 75.1266 182.743 73.9848 182.743 73.6423C182.743 73.414 197.714 73.0714 215.886 73.0714C234.171 73.0714 249.029 73.2998 249.029 73.414C249.143 73.5281 247.771 77.2959 246.171 81.6345C244.571 86.0873 242.629 91.111 240.457 96.0204H215.086C201.029 96.0204 189.6 95.5637 189.6 95.107C189.6 94.6503 190.629 91.3393 191.886 87.6857C194.057 81.4062 194.057 81.0636 192.229 79.5794C191.086 78.666 188.571 77.1817 186.514 76.1541Z" fill="#E9E9E9"/>
<path fill-rule="evenodd" clip-rule="evenodd" d="M352.343 52.5457C381.029 52.4315 388.229 52.6599 391.771 54.03C394.171 55.0575 396.914 57.2269 398.057 59.1678C399.086 61.1088 400 64.6482 400 67.16C400 69.6718 397.943 77.4357 395.429 84.2861C392.914 91.2507 388.8 102.668 386.286 109.747C383.771 116.826 380.457 125.16 378.971 128.243C377.486 131.44 374.057 135.893 371.314 138.29C368.571 140.688 364.457 143.542 362.286 144.57C358.743 146.283 353.486 146.625 318.857 146.854C281.029 147.196 279.314 147.082 275.771 144.913C273.714 143.657 271.543 141.259 270.857 139.661C270.286 138.176 269.714 135.094 269.714 132.81C269.714 130.641 271.771 123.334 274.171 116.597C275.239 113.737 276.677 109.787 278.233 105.514C280.341 99.7232 282.664 93.3411 284.571 88.2822C287.771 79.4908 291.429 70.8136 292.571 68.8726C293.714 67.0458 296.457 63.849 298.743 61.7938C301.029 59.7387 304.571 57.2268 306.629 56.1993C308.686 55.1717 311.886 53.9158 313.714 53.4591C315.657 53.0024 333.029 52.5457 352.343 52.5457ZM309.714 78.3491C307.2 76.979 305.143 75.3805 305.143 74.9238C305.143 74.4671 319.771 74.0104 337.714 74.0104C358.629 74.0104 370.286 74.4671 370.286 75.1522C370.286 75.8372 369.029 79.605 367.543 83.4869C366.057 87.3688 362.057 98.1012 358.743 107.121C355.429 116.255 352 124.361 350.971 125.16C349.6 126.302 342.743 126.645 324.914 126.645C301.371 126.645 300.571 126.531 300.571 124.247C300.571 122.991 303.657 113.629 307.429 103.467C311.2 93.3059 314.286 84.0578 314.286 82.916C314.286 81.7743 312.343 79.8333 309.714 78.3491Z" fill="#E9E9E9"/>
<path d="M93.2732 2.18571C87.2161 0.358923 82.5304 -0.0977734 72.359 0.0164007C65.159 0.0164007 57.959 0.473097 56.359 1.04397C54.759 1.50066 52.2447 2.29988 50.6447 2.6424C49.0447 2.98493 46.9875 3.78415 46.0733 4.35502C44.5876 5.26841 45.0447 6.41015 48.4733 11.548C50.8733 14.859 54.3018 21.1386 56.359 25.5914C58.3018 30.0442 60.359 34.2686 60.7018 35.0678C61.2733 36.2096 64.5875 36.6663 72.8161 36.7805C81.8447 37.0088 84.2447 36.6663 85.0447 35.2962C85.5018 34.3828 87.559 30.0442 89.5018 25.5914C91.4447 21.1386 94.8733 15.2016 97.0447 12.1189C99.2161 9.15033 100.93 6.29598 100.93 5.61093C100.93 4.92589 97.5018 3.44162 93.2732 2.18571Z" fill="#5900F8"/>
<path d="M119.788 15.7724C116.702 13.3748 113.73 11.3196 113.273 11.3196C112.93 11.3196 110.759 13.7173 108.588 16.6858C106.302 19.7685 103.216 25.0205 101.502 28.4458C99.7875 31.871 98.3018 35.8671 98.1876 37.3513C98.0733 39.5206 98.9875 40.3199 103.216 41.8041C106.073 42.8317 109.959 44.5443 111.788 45.5719C113.616 46.7136 116.816 48.5404 118.873 49.6821C120.816 50.938 122.645 51.6231 122.873 51.2806C123.102 50.938 124.588 47.8554 126.302 44.4301C128.016 41.0049 130.416 36.5521 131.673 34.7253L134.073 31.3001C127.445 22.737 122.988 18.2843 119.788 15.7724Z" fill="#5900F8"/>
<path d="M36.8161 16.6858C34.9875 14.4023 32.7018 12.4614 31.6733 12.4614C30.6447 12.4614 25.7304 16.5716 20.8161 21.5953L11.7876 30.7292C16.8161 38.2647 19.4447 42.7175 20.9304 45.5719C22.3018 48.4262 23.6733 50.938 23.9018 51.2806C24.1304 51.6231 26.3019 50.4814 28.5876 48.8829C30.9876 47.2845 35.3304 44.8868 38.4161 43.5167C41.3875 42.1466 44.5876 41.0049 45.5018 41.0049C46.4161 41.0049 47.559 40.3199 47.9018 39.5206C48.2447 38.8356 46.6447 34.2686 44.359 29.5875C42.0733 24.9064 38.6447 19.0835 36.8161 16.6858Z" fill="#5900F8"/>
<path d="M7.33042 46.7136L5.159 43.8593L2.53041 50.7097C0.35898 56.6468 -0.0981417 59.6153 0.016144 72.9737C0.016144 85.3045 0.358994 89.6431 2.18757 94.5526C3.33042 97.9778 4.93041 100.946 5.50184 101.175C6.07327 101.403 7.55898 99.5762 8.81612 97.2927C9.95898 94.8951 11.6733 90.3281 12.4733 87.2454C13.3876 84.0485 14.0733 77.6548 14.0733 72.9737C14.0733 67.4933 13.2733 61.7846 11.6733 56.9893C10.4161 52.879 8.47328 48.312 7.33042 46.7136Z" fill="#5900F8"/>
<path d="M144.359 53.5641C142.988 49.4538 141.502 45.686 141.045 45.2293C140.702 44.6585 138.759 47.2845 136.93 50.938C134.873 55.0483 133.159 60.8712 132.473 66.1232C131.673 72.2886 131.788 76.7414 132.702 82.1076C133.502 86.2178 135.33 92.2691 136.93 95.466C138.53 98.777 140.13 101.517 140.702 101.517C141.159 101.517 142.759 97.5211 144.245 92.7258C146.302 85.8753 146.873 81.1942 146.759 72.4028C146.759 63.9539 146.073 59.0444 144.359 53.5641Z" fill="#5900F8"/>
<path d="M80.0161 50.3672C79.2161 49.568 76.2447 48.8829 72.9304 48.9971C69.8447 48.9971 66.5304 49.4538 65.7304 49.9105C64.5876 50.5955 64.4733 52.194 65.6161 58.131C66.3018 62.2413 66.6447 71.7177 66.5304 79.2532L66.0733 92.9541H79.7876C79.3304 70.8044 79.559 61.5562 80.2447 58.131C80.9304 53.6782 80.9304 51.3947 80.0161 50.3672Z" fill="#5900F8"/>
<path d="M53.2733 62.1271C52.4733 54.2491 52.0161 52.9932 50.0733 52.7648C48.8161 52.6507 45.2733 53.6782 42.0733 55.1625C38.9876 56.5326 34.4161 59.6153 32.1304 61.8988C29.7304 64.1823 27.4447 67.4933 27.1018 69.2059C26.6447 71.1469 27.1018 73.887 28.2447 76.0564C29.2733 78.1115 32.2447 81.3084 34.9875 83.021C37.6161 84.8478 41.959 87.1312 44.7018 88.1588C47.3304 89.1864 50.3018 90.0998 51.2161 90.0998C52.5876 90.0998 53.0447 88.0446 53.6161 80.6233C53.959 75.4855 53.8447 67.1508 53.2733 62.1271Z" fill="#5900F8"/>
<path d="M103.788 55.7334C100.016 54.0208 96.359 52.4223 95.559 52.4223C94.759 52.4223 93.7304 53.1074 93.2732 53.7924C92.8161 54.5916 92.2447 62.0129 92.0161 70.1193C91.7876 79.0249 92.1304 86.2178 92.8161 88.0446L94.0733 91.2415C102.53 88.273 107.216 85.7612 110.073 83.8202C112.816 81.9934 116.13 78.5682 117.273 76.3989C118.645 73.887 119.216 71.3752 118.759 69.7768C118.416 68.4067 116.359 65.4382 114.416 63.1547C112.359 60.8712 107.559 57.5602 103.788 55.7334Z" fill="#5900F8"/>
<path d="M42.9875 101.289C39.9018 100.147 34.5304 97.5211 30.759 95.3518C25.0447 91.8124 24.0161 91.584 23.559 93.2967C23.2161 94.3242 22.4161 96.836 21.7304 98.6628C21.0447 100.49 19.2161 104.143 17.7304 106.655C16.359 109.167 14.5304 112.135 13.7304 113.163C12.5876 114.761 12.9304 115.903 15.7876 119.899C17.7304 122.639 22.0733 127.092 25.5018 129.832L31.7876 134.97C37.5018 128.006 41.159 121.84 43.7876 116.588C46.3018 111.45 48.359 106.312 48.359 105.171C48.359 103.915 46.6447 102.545 42.9875 101.289Z" fill="#5900F8"/>
<path d="M124.473 99.8046C122.873 96.0368 121.159 92.84 120.702 92.7258C120.245 92.6116 117.959 93.7533 115.788 95.3518C113.616 96.836 108.588 99.3479 104.702 100.832C100.816 102.316 97.3876 104.372 97.0447 105.399C96.7018 106.427 98.5304 111.679 101.273 117.045C103.902 122.411 107.445 128.576 109.273 130.746C110.988 132.915 113.159 134.628 114.073 134.628C114.988 134.628 118.988 131.659 122.988 127.891C126.873 124.238 130.873 119.899 131.788 118.301C133.388 115.446 133.273 114.99 130.416 110.994C128.702 108.596 125.959 103.572 124.473 99.8046Z" fill="#5900F8"/>
<path d="M81.8447 106.084C80.7018 106.084 76.0161 105.856 71.3304 105.742C64.5876 105.513 62.6447 105.742 61.959 107.226C61.5019 108.139 59.5596 112.819 57.617 117.499L57.6161 117.502C55.6733 122.183 51.7875 129.49 48.9304 133.714L43.7876 141.478C48.7018 143.077 52.1304 144.218 54.6447 145.132C57.3876 145.931 64.8161 146.616 73.5018 146.616C84.0161 146.616 89.3875 146.045 93.8447 144.561C97.0447 143.533 100.016 142.163 100.359 141.478C100.702 140.793 98.9876 137.368 96.4733 133.714C94.0733 130.175 91.1018 125.151 89.8447 122.639C88.5875 120.128 86.6447 115.332 85.6161 112.021C84.359 107.911 83.2161 106.084 81.8447 106.084Z" fill="#5900F8"/>
</svg>
