<svg width="500" height="500" viewBox="0 0 500 500" fill="none" xmlns="http://www.w3.org/2000/svg">
<rect width="500" height="500" rx="50" fill="#5900F8"/>
<path fill-rule="evenodd" clip-rule="evenodd" d="M270.914 227.878C303.257 227.878 316.971 228.335 320.171 229.363C322.686 230.162 325.657 232.217 327.028 234.158C328.514 236.327 329.428 239.296 329.428 242.15C329.428 244.662 327.143 252.882 324.4 260.418C321.657 267.953 317.657 276.402 315.714 279.257C313.657 282.111 310 285.65 307.6 287.249C305.086 288.847 301.657 290.902 299.714 291.816C296.971 293.186 288.514 293.528 257.2 293.757C231.486 293.985 218.229 294.442 218.571 295.241C218.914 295.926 221.2 297.41 223.714 298.666C227.943 300.836 228.171 301.178 227.257 304.032C227.079 304.507 226.831 305.174 226.486 306.105C225.503 308.754 223.729 313.537 220.514 322.072L191.714 322.643L193.886 316.592C194.477 314.939 196.84 308.462 200.122 299.468C203.188 291.067 207.055 280.469 211.029 269.552C219.257 246.945 226 228.335 226 228.107C226 227.993 246.229 227.878 270.914 227.878ZM236.514 252.654C234.457 251.627 232.743 250.485 232.743 250.142C232.743 249.914 247.714 249.571 265.886 249.571C284.171 249.571 299.029 249.8 299.029 249.914C299.143 250.028 297.771 253.796 296.171 258.134C294.571 262.587 292.629 267.611 290.457 272.52H265.086C251.029 272.52 239.6 272.064 239.6 271.607C239.6 271.15 240.629 267.839 241.886 264.186C244.057 257.906 244.057 257.564 242.229 256.079C241.086 255.166 238.571 253.682 236.514 252.654Z" fill="#E9E9E9"/>
<path fill-rule="evenodd" clip-rule="evenodd" d="M402.343 229.046C431.029 228.932 438.229 229.16 441.771 230.53C444.171 231.558 446.914 233.727 448.057 235.668C449.086 237.609 450 241.148 450 243.66C450 246.172 447.943 253.936 445.429 260.786C442.914 267.751 438.8 279.168 436.286 286.247C433.771 293.326 430.457 301.66 428.971 304.743C427.486 307.94 424.057 312.393 421.314 314.79C418.571 317.188 414.457 320.042 412.286 321.07C408.743 322.783 403.486 323.125 368.857 323.354C331.029 323.696 329.314 323.582 325.771 321.413C323.714 320.157 321.543 317.759 320.857 316.161C320.286 314.676 319.714 311.594 319.714 309.31C319.714 307.141 321.771 299.834 324.171 293.097C325.239 290.237 326.677 286.287 328.233 282.014C330.341 276.223 332.664 269.841 334.571 264.782C337.771 255.991 341.429 247.314 342.571 245.373C343.714 243.546 346.457 240.349 348.743 238.294C351.029 236.239 354.571 233.727 356.629 232.699C358.686 231.672 361.886 230.416 363.714 229.959C365.657 229.502 383.029 229.046 402.343 229.046ZM359.714 254.849C357.2 253.479 355.143 251.881 355.143 251.424C355.143 250.967 369.771 250.51 387.714 250.51C408.629 250.51 420.286 250.967 420.286 251.652C420.286 252.337 419.029 256.105 417.543 259.987C416.057 263.869 412.057 274.601 408.743 283.621C405.429 292.755 402 300.861 400.971 301.66C399.6 302.802 392.743 303.145 374.914 303.145C351.371 303.145 350.571 303.031 350.571 300.747C350.571 299.491 353.657 290.129 357.429 279.967C361.2 269.806 364.286 260.558 364.286 259.416C364.286 258.274 362.343 256.333 359.714 254.849Z" fill="#E9E9E9"/>
<path d="M143.273 178.686C137.216 176.859 132.53 176.402 122.359 176.516C115.159 176.516 107.959 176.973 106.359 177.544C104.759 178.001 102.245 178.8 100.645 179.142C99.0447 179.485 96.9875 180.284 96.0733 180.855C94.5876 181.768 95.0447 182.91 98.4733 188.048C100.873 191.359 104.302 197.639 106.359 202.091C108.302 206.544 110.359 210.769 110.702 211.568C111.273 212.71 114.588 213.166 122.816 213.28C131.845 213.509 134.245 213.166 135.045 211.796C135.502 210.883 137.559 206.544 139.502 202.091C141.445 197.639 144.873 191.702 147.045 188.619C149.216 185.65 150.93 182.796 150.93 182.111C150.93 181.426 147.502 179.942 143.273 178.686Z" fill="#150028"/>
<path d="M169.788 192.272C166.702 189.875 163.73 187.82 163.273 187.82C162.93 187.82 160.759 190.217 158.588 193.186C156.302 196.269 153.216 201.521 151.502 204.946C149.788 208.371 148.302 212.367 148.188 213.851C148.073 216.021 148.988 216.82 153.216 218.304C156.073 219.332 159.959 221.044 161.788 222.072C163.616 223.214 166.816 225.04 168.873 226.182C170.816 227.438 172.645 228.123 172.873 227.781C173.102 227.438 174.588 224.355 176.302 220.93C178.016 217.505 180.416 213.052 181.673 211.225L184.073 207.8C177.445 199.237 172.988 194.784 169.788 192.272Z" fill="#150028"/>
<path d="M86.8161 193.186C84.9875 190.902 82.7018 188.961 81.6733 188.961C80.6447 188.961 75.7304 193.072 70.8161 198.095L61.7876 207.229C66.8161 214.765 69.4447 219.218 70.9304 222.072C72.3018 224.926 73.6733 227.438 73.9018 227.781C74.1304 228.123 76.3019 226.981 78.5876 225.383C80.9876 223.784 85.3304 221.387 88.4161 220.017C91.3875 218.647 94.5876 217.505 95.5018 217.505C96.4161 217.505 97.559 216.82 97.9018 216.021C98.2447 215.336 96.6447 210.769 94.359 206.087C92.0733 201.406 88.6447 195.583 86.8161 193.186Z" fill="#150028"/>
<path d="M57.3304 223.214L55.159 220.359L52.5304 227.21C50.359 233.147 49.9019 236.115 50.0161 249.474C50.0161 261.804 50.359 266.143 52.1876 271.053C53.3304 274.478 54.9304 277.446 55.5018 277.675C56.0733 277.903 57.559 276.076 58.8161 273.793C59.959 271.395 61.6733 266.828 62.4733 263.745C63.3876 260.549 64.0733 254.155 64.0733 249.474C64.0733 243.993 63.2733 238.285 61.6733 233.489C60.4161 229.379 58.4733 224.812 57.3304 223.214Z" fill="#150028"/>
<path d="M194.359 230.064C192.988 225.954 191.502 222.186 191.045 221.729C190.702 221.158 188.759 223.784 186.93 227.438C184.873 231.548 183.159 237.371 182.473 242.623C181.673 248.789 181.788 253.241 182.702 258.608C183.502 262.718 185.33 268.769 186.93 271.966C188.53 275.277 190.13 278.017 190.702 278.017C191.159 278.017 192.759 274.021 194.245 269.226C196.302 262.375 196.873 257.694 196.759 248.903C196.759 240.454 196.073 235.544 194.359 230.064Z" fill="#150028"/>
<path d="M130.016 226.867C129.216 226.068 126.245 225.383 122.93 225.497C119.845 225.497 116.53 225.954 115.73 226.41C114.588 227.096 114.473 228.694 115.616 234.631C116.302 238.741 116.645 248.218 116.53 255.753L116.073 269.454H129.788C129.33 247.304 129.559 238.056 130.245 234.631C130.93 230.178 130.93 227.895 130.016 226.867Z" fill="#150028"/>
<path d="M103.273 238.627C102.473 230.749 102.016 229.493 100.073 229.265C98.8161 229.151 95.2733 230.178 92.0733 231.662C88.9876 233.033 84.4161 236.115 82.1304 238.399C79.7304 240.682 77.4447 243.993 77.1018 245.706C76.6447 247.647 77.1018 250.387 78.2447 252.556C79.2733 254.611 82.2447 257.808 84.9875 259.521C87.6161 261.348 91.959 263.631 94.7018 264.659C97.3304 265.686 100.302 266.6 101.216 266.6C102.588 266.6 103.045 264.545 103.616 257.123C103.959 251.985 103.845 243.651 103.273 238.627Z" fill="#150028"/>
<path d="M153.788 232.233C150.016 230.521 146.359 228.922 145.559 228.922C144.759 228.922 143.73 229.607 143.273 230.292C142.816 231.092 142.245 238.513 142.016 246.619C141.788 255.525 142.13 262.718 142.816 264.545L144.073 267.742C152.53 264.773 157.216 262.261 160.073 260.32C162.816 258.493 166.13 255.068 167.273 252.899C168.645 250.387 169.216 247.875 168.759 246.277C168.416 244.907 166.359 241.938 164.416 239.655C162.359 237.371 157.559 234.06 153.788 232.233Z" fill="#150028"/>
<path d="M92.9875 277.789C89.9018 276.647 84.5304 274.021 80.759 271.852C75.0447 268.312 74.0161 268.084 73.559 269.797C73.2161 270.824 72.4161 273.336 71.7304 275.163C71.0447 276.99 69.2161 280.643 67.7304 283.155C66.359 285.667 64.5304 288.635 63.7304 289.663C62.5876 291.261 62.9304 292.403 65.7876 296.399C67.7304 299.139 72.0733 303.592 75.5018 306.332L81.7876 311.47C87.5018 304.506 91.159 298.34 93.7876 293.088C96.3018 287.95 98.359 282.812 98.359 281.671C98.359 280.415 96.6447 279.045 92.9875 277.789Z" fill="#150028"/>
<path d="M174.473 276.305C172.873 272.537 171.159 269.34 170.702 269.226C170.245 269.112 167.959 270.253 165.788 271.852C163.616 273.336 158.588 275.848 154.702 277.332C150.816 278.816 147.388 280.872 147.045 281.899C146.702 282.927 148.53 288.179 151.273 293.545C153.902 298.911 157.445 305.076 159.273 307.246C160.988 309.415 163.159 311.128 164.073 311.128C164.988 311.128 168.988 308.159 172.988 304.391C176.873 300.738 180.873 296.399 181.788 294.801C183.388 291.946 183.273 291.49 180.416 287.494C178.702 285.096 175.959 280.072 174.473 276.305Z" fill="#150028"/>
<path d="M131.845 282.584C130.702 282.584 126.016 282.356 121.33 282.242C114.588 282.013 112.645 282.242 111.959 283.726C111.502 284.639 109.56 289.319 107.617 293.999L107.616 294.002C105.673 298.683 101.788 305.99 98.9304 310.214L93.7876 317.978C98.7018 319.577 102.13 320.718 104.645 321.632C107.388 322.431 114.816 323.116 123.502 323.116C134.016 323.116 139.388 322.545 143.845 321.061C147.045 320.033 150.016 318.663 150.359 317.978C150.702 317.293 148.988 313.868 146.473 310.214C144.073 306.675 141.102 301.651 139.845 299.139C138.588 296.628 136.645 291.832 135.616 288.521C134.359 284.411 133.216 282.584 131.845 282.584Z" fill="#150028"/>
</svg>
