<svg width="139" height="51" viewBox="0 0 139 51" fill="none" xmlns="http://www.w3.org/2000/svg">
<path fill-rule="evenodd" clip-rule="evenodd" d="M76.7677 17.8252C88.0069 17.8252 92.7726 17.9836 93.8846 18.3401C94.7583 18.6174 95.7909 19.3304 96.2674 20.0038C96.7837 20.7564 97.1014 21.7863 97.1014 22.7766C97.1014 23.6481 96.3072 26.5001 95.354 29.1145C94.4009 31.7288 93.0109 34.6601 92.3357 35.6503C91.6209 36.6406 90.35 37.8686 89.516 38.4231C88.6423 38.9777 87.4509 39.6907 86.7757 40.0076C85.8226 40.4829 82.8837 40.6018 72.002 40.681C63.0663 40.7602 58.4594 40.9187 58.5786 41.1959C58.6977 41.4336 59.492 41.9486 60.3657 42.3843C61.8352 43.1369 61.9146 43.2557 61.5969 44.246C61.535 44.4107 61.4489 44.6422 61.329 44.9649C60.9874 45.8842 60.3708 47.5434 59.2537 50.5046L49.2457 50.7027L50.0003 48.6033C50.2057 48.0298 51.0269 45.7829 52.1674 42.6623C53.2327 39.7477 54.5765 36.071 55.9574 32.2834C58.8169 24.4403 61.16 17.9836 61.16 17.9044C61.16 17.8648 68.1894 17.8252 76.7677 17.8252ZM64.8137 26.4209C64.0989 26.0644 63.5032 25.6683 63.5032 25.5494C63.5032 25.4702 68.7057 25.3514 75.0203 25.3514C81.3746 25.3514 86.5374 25.4306 86.5374 25.4702C86.5772 25.5098 86.1006 26.817 85.5446 28.3222C84.9886 29.8671 84.3134 31.61 83.5589 33.3133H74.7423C69.8574 33.3133 65.886 33.1548 65.886 32.9964C65.886 32.8379 66.2434 31.6892 66.6803 30.4216C67.4349 28.243 67.4349 28.1242 66.7994 27.6092C66.4023 27.2923 65.5286 26.7774 64.8137 26.4209Z" fill="#E9E9E9"/>
<path fill-rule="evenodd" clip-rule="evenodd" d="M122.439 18.2301C132.407 18.1905 134.909 18.2697 136.141 18.745C136.975 19.1015 137.928 19.8542 138.325 20.5275C138.682 21.2009 139 22.4289 139 23.3003C139 24.1718 138.285 26.8654 137.411 29.2421C136.538 31.6584 135.108 35.6195 134.234 38.0754C133.361 40.5313 132.209 43.4229 131.693 44.4925C131.176 45.6016 129.985 47.1464 129.032 47.9783C128.079 48.8101 126.649 49.8004 125.894 50.1569C124.663 50.7511 122.836 50.8699 110.803 50.9491C97.6574 51.0679 97.0617 51.0283 95.8306 50.2757C95.1157 49.84 94.3611 49.0082 94.1229 48.4536C93.9243 47.9387 93.7257 46.8691 93.7257 46.0769C93.7257 45.3243 94.4406 42.7892 95.2746 40.4521C95.6455 39.4599 96.1453 38.0892 96.6858 36.6068C97.4184 34.5978 98.2258 32.3836 98.8886 30.6285C100.001 27.5784 101.271 24.5679 101.669 23.8945C102.066 23.2607 103.019 22.1516 103.813 21.4386C104.607 20.7256 105.839 19.8542 106.553 19.4976C107.268 19.1411 108.38 18.7054 109.016 18.547C109.691 18.3885 115.727 18.2301 122.439 18.2301ZM107.626 27.1823C106.752 26.7069 106.037 26.1524 106.037 25.9939C106.037 25.8355 111.121 25.677 117.356 25.677C124.623 25.677 128.674 25.8355 128.674 26.0731C128.674 26.3108 128.237 27.618 127.721 28.9648C127.205 30.3116 125.815 34.035 124.663 37.1643C123.511 40.3333 122.32 43.1457 121.963 43.423C121.486 43.8191 119.103 43.9379 112.908 43.9379C104.727 43.9379 104.449 43.8983 104.449 43.1061C104.449 42.6703 105.521 39.4222 106.831 35.8968C108.142 32.3714 109.214 29.1628 109.214 28.7667C109.214 28.3706 108.539 27.6972 107.626 27.1823Z" fill="#E9E9E9"/>
<path d="M32.4125 0.758307C30.3076 0.124524 28.6793 -0.0339214 25.1447 0.00569004C22.6427 0.00569004 20.1407 0.164136 19.5847 0.362193C19.0287 0.520638 18.155 0.797918 17.599 0.916753C17.043 1.03559 16.3282 1.31287 16.0105 1.51092C15.4942 1.82782 15.653 2.22393 16.8445 4.00644C17.6785 5.15518 18.8699 7.3338 19.5847 8.87865C20.2599 10.4235 20.9747 11.8891 21.0939 12.1664C21.2925 12.5625 22.4442 12.721 25.3036 12.7606C28.441 12.8398 29.275 12.721 29.553 12.2456C29.7119 11.9287 30.4267 10.4235 31.1019 8.87865C31.777 7.3338 32.9685 5.27401 33.723 4.2045C34.4776 3.1746 35.0733 2.18432 35.0733 1.94665C35.0733 1.70898 33.8819 1.19403 32.4125 0.758307Z" fill="#FF6600"/>
<path d="M41.6262 5.47207C40.5539 4.64023 39.5213 3.92722 39.3625 3.92722C39.2433 3.92722 38.4888 4.75906 37.7342 5.78896C36.9399 6.85847 35.8676 8.68059 35.2719 9.86893C34.6762 11.0573 34.1599 12.4437 34.1202 12.9586C34.0805 13.7112 34.3982 13.9885 35.8676 14.5035C36.8605 14.86 38.2107 15.4541 38.8462 15.8106C39.4816 16.2068 40.5936 16.8405 41.3085 17.2367C41.9836 17.6724 42.619 17.9101 42.6985 17.7912C42.7779 17.6724 43.2942 16.6029 43.8899 15.4145C44.4856 14.2262 45.3196 12.6813 45.7565 12.0476L46.5905 10.8592C44.287 7.88836 42.7382 6.34352 41.6262 5.47207Z" fill="#FF6600"/>
<path d="M12.7936 5.78896C12.1582 4.99673 11.3639 4.32333 11.0065 4.32333C10.649 4.32333 8.94132 5.74935 7.2336 7.49225L4.09618 10.6612C5.8436 13.2755 6.75703 14.8204 7.27332 15.8106C7.74989 16.8009 8.22646 17.6724 8.30589 17.7912C8.38532 17.9101 9.1399 17.5139 9.93418 16.9594C10.7682 16.4048 12.2773 15.573 13.3496 15.0976C14.3822 14.6223 15.4942 14.2262 15.8119 14.2262C16.1296 14.2262 16.5267 13.9885 16.6459 13.7112C16.765 13.4736 16.209 11.8891 15.4147 10.265C14.6205 8.64098 13.429 6.6208 12.7936 5.78896Z" fill="#FF6600"/>
<path d="M2.54732 16.2068L1.79275 15.2165L0.879317 17.5932C0.124746 19.653 -0.0341042 20.6829 0.00561005 25.3174C0.00561005 29.5954 0.12475 31.1007 0.760179 32.804C1.15732 33.9923 1.71332 35.0222 1.91189 35.1014C2.11046 35.1806 2.62675 34.5469 3.0636 33.7546C3.46075 32.9228 4.05646 31.3383 4.33446 30.2688C4.65218 29.1597 4.89046 26.9415 4.89046 25.3174C4.89046 23.416 4.61246 21.4355 4.05646 19.7718C3.6196 18.3458 2.94446 16.7613 2.54732 16.2068Z" fill="#FF6600"/>
<path d="M50.1647 18.5834C49.6882 17.1574 49.1719 15.8503 49.013 15.6918C48.8939 15.4938 48.2187 16.4048 47.5833 17.6724C46.8685 19.0984 46.2727 21.1186 46.0345 22.9407C45.7565 25.0797 45.7962 26.6246 46.1139 28.4863C46.3919 29.9123 47.0273 32.0117 47.5833 33.1208C48.1393 34.2696 48.6953 35.2202 48.8939 35.2202C49.0527 35.2202 49.6087 33.8338 50.125 32.1702C50.8399 29.7935 51.0385 28.1694 50.9987 25.1193C50.9987 22.1881 50.7605 20.4848 50.1647 18.5834Z" fill="#FF6600"/>
<path d="M27.8056 17.4743C27.5276 17.197 26.495 16.9594 25.3433 16.999C24.271 16.999 23.1193 17.1574 22.8413 17.3159C22.4442 17.5536 22.4045 18.1081 22.8016 20.1679C23.0399 21.5939 23.159 24.8817 23.1193 27.496L22.9605 32.2494H27.7262C27.5673 24.5648 27.6467 21.3562 27.885 20.1679C28.1233 18.6231 28.1233 17.8308 27.8056 17.4743Z" fill="#FF6600"/>
<path d="M18.5125 21.5543C18.2345 18.8211 18.0756 18.3854 17.4005 18.3062C16.9636 18.2666 15.7325 18.6231 14.6205 19.138C13.5482 19.6133 11.9596 20.6829 11.1653 21.4751C10.3313 22.2673 9.53703 23.416 9.41789 24.0102C9.25903 24.6836 9.41789 25.6343 9.81503 26.3869C10.1725 27.0999 11.205 28.209 12.1582 28.8032C13.0716 29.437 14.5807 30.2292 15.5339 30.5857C16.4473 30.9422 17.4799 31.2591 17.7976 31.2591C18.2742 31.2591 18.433 30.5461 18.6316 27.9714C18.7507 26.1888 18.711 23.2972 18.5125 21.5543Z" fill="#FF6600"/>
<path d="M36.0662 19.3361C34.7556 18.7419 33.4847 18.1873 33.2067 18.1873C32.9287 18.1873 32.5713 18.425 32.4125 18.6627C32.2536 18.9399 32.055 21.5147 31.9756 24.3271C31.8962 27.4168 32.0153 29.9123 32.2536 30.5461L32.6905 31.6552C35.6293 30.6253 37.2576 29.7539 38.2505 29.0805C39.2036 28.4467 40.3553 27.2584 40.7525 26.5057C41.229 25.6343 41.4276 24.7628 41.2687 24.2083C41.1496 23.7329 40.4347 22.703 39.7596 21.9108C39.0447 21.1186 37.3767 19.9698 36.0662 19.3361Z" fill="#FF6600"/>
<path d="M14.9382 35.141C13.8659 34.7449 11.9993 33.8338 10.6887 33.0812C8.70304 31.8533 8.3456 31.7741 8.18674 32.3682C8.0676 32.7247 7.78961 33.5962 7.55132 34.23C7.31304 34.8637 6.67761 36.1313 6.16132 37.0028C5.68475 37.8742 5.04932 38.9041 4.77132 39.2606C4.37418 39.8152 4.49332 40.2113 5.48618 41.5977C6.16132 42.5484 7.67046 44.0932 8.86189 45.0439L11.0462 46.8264C13.0319 44.4101 14.3027 42.2711 15.2162 40.449C16.0899 38.6664 16.8047 36.8839 16.8047 36.4878C16.8047 36.0521 16.209 35.5768 14.9382 35.141Z" fill="#FF6600"/>
<path d="M43.2545 34.6261C42.6985 33.3189 42.1027 32.2098 41.9439 32.1702C41.785 32.1306 40.9907 32.5267 40.2362 33.0812C39.4816 33.5962 37.7342 34.4676 36.3839 34.9826C35.0336 35.4975 33.8422 36.2105 33.723 36.567C33.6039 36.9235 34.2393 38.7457 35.1925 40.6074C36.1059 42.4691 37.337 44.6082 37.9725 45.3608C38.5682 46.1134 39.3227 46.7076 39.6405 46.7076C39.9582 46.7076 41.3482 45.6777 42.7382 44.3705C44.0885 43.1029 45.4785 41.5977 45.7962 41.0431C46.3522 40.0528 46.3125 39.8944 45.3196 38.508C44.7239 37.6762 43.7707 35.9333 43.2545 34.6261Z" fill="#FF6600"/>
<path d="M28.441 36.8047C28.0439 36.8047 26.4156 36.7255 24.7873 36.6859C22.4442 36.6066 21.769 36.6859 21.5307 37.2008C21.3719 37.5177 20.6969 39.1413 20.0219 40.7652L20.0216 40.7658C19.3465 42.3899 17.9962 44.925 17.0033 46.3907L15.2162 49.0842C16.9239 49.6388 18.1153 50.0349 18.989 50.3518C19.9422 50.6291 22.5236 50.8668 25.5419 50.8668C29.1956 50.8668 31.0622 50.6687 32.611 50.1538C33.723 49.7972 34.7556 49.3219 34.8747 49.0842C34.9939 48.8466 34.3982 47.6582 33.5245 46.3907C32.6905 45.1627 31.6579 43.4198 31.221 42.5484C30.7842 41.6769 30.109 40.0132 29.7516 38.8645C29.3148 37.4385 28.9176 36.8047 28.441 36.8047Z" fill="#FF6600"/>
</svg>
