<svg width="500" height="500" viewBox="0 0 500 500" fill="none" xmlns="http://www.w3.org/2000/svg">
<rect width="500" height="500" rx="50" fill="#FE9032"/>
<path fill-rule="evenodd" clip-rule="evenodd" d="M117.644 128.777C122.285 129.005 125.478 129.828 129.049 131.733C131.776 133.191 135.624 136.058 137.607 138.112C140.215 140.81 150.231 160.026 207.155 274.765L196.99 294.606C191.407 305.518 184.762 318.137 182.233 322.651C179.705 327.165 177.196 330.865 176.65 330.885C176.105 330.895 175.153 330.329 174.538 329.615C173.913 328.911 155.785 293.068 134.245 249.964C112.705 206.86 93.8531 168.468 92.3557 164.649C90.2433 159.252 89.7376 156.594 90.1144 152.745C90.3822 149.957 91.84 145.443 93.4565 142.447C95.0333 139.511 97.8794 135.86 99.7934 134.332C101.707 132.805 105.049 130.85 107.231 130.007C109.8 129.005 113.479 128.569 117.644 128.777ZM332.595 128.519C383.896 128.44 386.633 128.529 391.601 130.404C394.467 131.485 398.374 133.648 400.278 135.225C402.182 136.793 405.078 140.483 406.705 143.429C409.075 147.725 409.66 149.947 409.64 154.729C409.62 158.002 408.876 162.685 407.984 165.145C406.962 167.952 404.553 171.266 401.498 174.073C398.781 176.573 394.497 179.282 391.77 180.224C387.505 181.692 380.613 181.95 336.81 182.307C297.142 182.625 285.955 183.002 283.02 184.093C280.977 184.857 278.081 186.623 276.574 188.021C275.066 189.42 272.974 192.327 271.923 194.47C270.862 196.642 270.038 200.362 270.058 202.842C270.088 205.303 271.01 209.092 272.111 211.275C273.222 213.457 274.947 215.967 275.959 216.86C276.97 217.753 279.37 219.261 281.274 220.213C283.188 221.165 289.377 222.445 295.049 223.06C300.712 223.675 305.531 224.618 305.75 225.163C305.978 225.709 301.594 235.084 296.021 245.996C290.438 256.909 284.845 267.513 283.575 269.557C281.572 272.801 280.798 273.277 277.556 273.247C275.513 273.228 270.048 271.769 265.407 270.003C260.776 268.248 253.854 264.746 250.036 262.226C246.218 259.706 240.278 254.577 236.836 250.827C232.463 246.075 229.111 241.016 225.719 234.092C222.506 227.534 220.295 221.314 219.194 215.739C218.004 209.688 217.697 204.648 218.093 197.882C218.463 191.599 219.525 185.812 221.277 180.522C222.715 176.157 225.204 170.125 226.79 167.129C228.377 164.133 232.046 158.766 234.942 155.225C237.838 151.683 242.866 146.614 246.109 143.965C249.362 141.316 255.371 137.556 259.457 135.612C263.553 133.668 269.572 131.287 272.845 130.334C278.18 128.767 284.359 128.579 332.595 128.519ZM320.972 223.675L332.615 223.665C340.975 223.665 346.34 224.201 351.685 225.6C355.781 226.661 361.8 228.725 365.073 230.183C368.346 231.641 373.701 234.657 376.973 236.879C380.246 239.111 385.095 242.97 387.763 245.451C390.421 247.931 394.507 252.643 396.857 255.917C399.197 259.19 402.539 265.44 404.285 269.805C406.03 274.17 408.123 280.866 408.926 284.686C409.938 289.487 410.225 294.546 409.828 301.054C409.521 306.243 408.361 313.713 407.25 317.671C406.139 321.629 404.285 326.758 403.115 329.079C401.944 331.401 399.326 335.756 397.283 338.752C395.25 341.748 391.185 346.688 388.249 349.734C385.324 352.769 379.8 357.104 375.982 359.376C372.164 361.638 366.362 364.545 363.09 365.834C359.817 367.124 353.797 368.929 349.702 369.852C343.285 371.291 335.679 371.519 294.414 371.499C247.398 371.489 246.555 371.459 246.069 369.505C245.762 368.285 248.092 362.471 252.138 354.376C255.748 347.144 261.55 335.984 271.357 317.919L303.836 317.929C322.083 317.939 338.704 317.492 341.768 316.917C345.041 316.302 348.561 314.804 350.574 313.187C352.419 311.699 354.799 309.368 355.86 307.999C356.991 306.55 357.963 303.405 358.21 300.429C358.448 297.622 358.131 293.604 357.526 291.501C356.911 289.388 355.007 286.174 353.302 284.348C351.596 282.533 348.522 280.182 346.479 279.14C343.226 277.483 340.41 277.235 324.165 277.156C313.941 277.106 303.35 276.779 300.622 276.412C296.983 275.926 295.605 275.301 295.416 274.021C295.277 273.069 299.621 263.694 305.075 253.188C310.53 242.683 316.341 231.75 317.987 228.883L320.972 223.675ZM228.774 261.373C229.29 261.373 232.493 263.555 235.894 266.224C239.306 268.892 245.216 272.781 249.034 274.874C252.852 276.968 259.774 280.043 264.406 281.7C271.328 284.18 272.885 285.112 273.083 286.938C273.232 288.247 265.764 303.574 254.737 324.575C240.892 350.954 235.131 360.973 232.175 363.82C229.994 365.924 225.868 368.503 223.002 369.564C220.146 370.626 216.13 371.489 214.077 371.479C212.034 371.479 208.573 370.983 206.391 370.378C204.209 369.773 200.501 367.878 198.14 366.162C195.78 364.455 192.438 360.834 190.703 358.116C187.827 353.612 187.559 352.491 187.579 345.22C187.598 337.502 187.777 336.926 193.4 325.855C196.593 319.585 204.775 303.961 211.588 291.134C218.401 278.307 224.847 266.373 225.908 264.597C226.979 262.821 228.268 261.373 228.774 261.373Z" fill="white"/>
</svg>
